<svg data-v-16bc8e0b="" version="1.0" xmlns="http://www.w3.org/2000/svg" width="100%" height="100%" viewBox="0 0 340.000000 250.000000" preserveAspectRatio="xMidYMid meet" color-interpolation-filters="sRGB" class="el-tooltip" style="margin: auto;"> <g data-v-16bc8e0b="" fill="#22ac38" transform="translate(10.185012817382812,107.20499992370605)"><g transform="translate(0,17.795000076293945)"><!----></g> <g transform="translate(7,0)"><g><g><path transform="translate(-1.95263671875,34.76953125)" d="M12.53-12.09L12.53 0L11.02 0L11.02-34.77L27.76-34.77L27.76-33.26L12.53-33.26L12.53-31.75L27.76-31.75L27.76-30.23L12.53-30.23L12.53-28.72L27.76-28.72L27.76-27.21L12.53-27.21L12.53-19.65L27.04-19.65L27.04-18.14L12.53-18.14L12.53-16.63L27.04-16.63L27.04-15.12L12.53-15.12L12.53-13.61L27.04-13.61L27.04-12.09L12.53-12.09ZM9.51-34.77L9.51 0L8.00 0L8.00-34.77L9.51-34.77ZM6.49-34.77L6.49 0L4.98 0L4.98-34.77L6.49-34.77ZM3.46-34.77L3.46 0L1.95 0L1.95-34.77L3.46-34.77ZM52.78 0L52.78-14.91L52.78-14.91Q52.78-17.59 51.13-19.06L51.13-19.06L51.13-19.06Q49.47-20.53 46.74-20.53L46.74-20.53L46.74-20.53Q44.43-20.53 42.77-18.94L42.77-18.94L42.77-18.94Q41.11-17.34 41.11-15.12L41.11-15.12L41.11-15.12Q41.11-13.86 41.45-12.86L41.45-12.86L41.45-12.86Q41.78-11.86 42.36-11.20L42.36-11.20L42.36-11.20Q42.94-10.54 43.73-10.11L43.73-10.11L43.73-10.11Q44.53-9.68 45.40-9.49L45.40-9.49L45.40-9.49Q46.28-9.30 47.26-9.30L47.26-9.30L47.26-9.30Q49.66-9.30 51.63-10.48L51.63-10.48L51.63-8.97L51.63-8.97Q49.59-7.89 47.24-7.89L47.24-7.89L47.24-7.89Q45.73-7.89 44.40-8.30L44.40-8.30L44.40-8.30Q43.06-8.71 41.97-9.54L41.97-9.54L41.97-9.54Q40.88-10.37 40.24-11.81L40.24-11.81L40.24-11.81Q39.60-13.25 39.60-15.12L39.60-15.12L39.60-15.12Q39.60-18.01 41.64-20.03L41.64-20.03L41.64-20.03Q43.67-22.05 46.74-22.05L46.74-22.05L46.74-22.05Q50.12-22.05 52.21-20.15L52.21-20.15L52.21-20.15Q54.30-18.25 54.30-14.91L54.30-14.91L54.30 0L52.78 0ZM57.32-14.91L57.32-14.91L57.32 0L55.81 0L55.81-14.91L55.81-14.91Q55.81-18.88 53.27-21.22L53.27-21.22L53.27-21.22Q50.73-23.56 46.74-23.56L46.74-23.56L46.74-23.56Q43.04-23.56 40.56-21.10L40.56-21.10L40.56-21.10Q38.09-18.64 38.09-15.12L38.09-15.12L38.09-15.12Q38.09-12.98 38.83-11.27L38.83-11.27L38.83-11.27Q39.58-9.57 40.86-8.55L40.86-8.55L40.86-8.55Q42.14-7.52 43.72-6.98L43.72-6.98L43.72-6.98Q45.31-6.45 47.07-6.45L47.07-6.45L47.07-6.45Q49.47-6.45 51.63-7.56L51.63-7.56L51.63-5.96L51.63-5.96Q49.36-5.02 47.05-5.02L47.05-5.02L47.05-5.02Q44.97-5.02 43.10-5.66L43.10-5.66L43.10-5.66Q41.24-6.30 39.77-7.53L39.77-7.53L39.77-7.53Q38.30-8.76 37.44-10.72L37.44-10.72L37.44-10.72Q36.58-12.68 36.58-15.12L36.58-15.12L36.58-15.12Q36.58-19.25 39.50-22.16L39.50-22.16L39.50-22.16Q42.43-25.07 46.74-25.07L46.74-25.07L46.74-25.07Q49.76-25.07 52.15-23.84L52.15-23.84L52.15-23.84Q54.55-22.61 55.93-20.28L55.93-20.28L55.93-20.28Q57.32-17.95 57.32-14.91ZM60.34-14.91L60.34-14.91L60.34 0L58.83 0L58.83-14.91L58.83-14.91Q58.83-18.37 57.25-21.05L57.25-21.05L57.25-21.05Q55.66-23.73 52.91-25.15L52.91-25.15L52.91-25.15Q50.16-26.58 46.74-26.58L46.74-26.58L46.74-26.58Q43.48-26.58 40.80-25.04L40.80-25.04L40.80-25.04Q38.11-23.49 36.59-20.87L36.59-20.87L36.59-20.87Q35.06-18.25 35.06-15.12L35.06-15.12L35.06-15.12Q35.06-12.43 36.05-10.21L36.05-10.21L36.05-10.21Q37.04-8.00 38.71-6.57L38.71-6.57L38.71-6.57Q40.38-5.14 42.51-4.36L42.51-4.36L42.51-4.36Q44.64-3.57 46.97-3.57L46.97-3.57L46.97-3.57Q49.34-3.57 51.63-4.56L51.63-4.56L51.63-3.02L51.63-3.02Q49.24-2.12 46.93-2.12L46.93-2.12L46.93-2.12Q43.29-2.12 40.25-3.76L40.25-3.76L40.25-3.76Q37.21-5.40 35.38-8.40L35.38-8.40L35.38-8.40Q33.55-11.40 33.55-15.12L33.55-15.12L33.55-15.12Q33.55-17.76 34.57-20.16L34.57-20.16L34.57-20.16Q35.59-22.55 37.33-24.29L37.33-24.29L37.33-24.29Q39.07-26.04 41.53-27.06L41.53-27.06L41.53-27.06Q43.99-28.09 46.74-28.09L46.74-28.09L46.74-28.09Q50.58-28.09 53.68-26.46L53.68-26.46L53.68-26.46Q56.77-24.82 58.56-21.79L58.56-21.79L58.56-21.79Q60.34-18.77 60.34-14.91ZM63.37-14.91L63.37-14.91L63.37 0L61.85 0L61.85-14.91L61.85-14.91Q61.85-19.19 59.86-22.56L59.86-22.56L59.86-22.56Q57.87-25.93 54.42-27.77L54.42-27.77L54.42-27.77Q50.98-29.60 46.74-29.60L46.74-29.60L46.74-29.60Q42.66-29.60 39.28-27.65L39.28-27.65L39.28-27.65Q35.90-25.70 33.97-22.37L33.97-22.37L33.97-22.37Q32.04-19.04 32.04-15.12L32.04-15.12L32.04-15.12Q32.04-12.53 32.87-10.21L32.87-10.21L32.87-10.21Q33.70-7.89 35.14-6.16L35.14-6.16L35.14-6.16Q36.58-4.43 38.45-3.17L38.45-3.17L38.45-3.17Q40.33-1.91 42.51-1.26L42.51-1.26L42.51-1.26Q44.68-0.61 46.93-0.61L46.93-0.61L46.93-0.61Q49.40-0.61 51.63-1.55L51.63-1.55L51.63 0L51.63 0Q49.30 0.82 46.84 0.82L46.84 0.82L46.84 0.82Q44.30 0.82 41.90 0.10L41.90 0.10L41.90 0.10Q39.49-0.61 37.45-2.01L37.45-2.01L37.45-2.01Q35.40-3.40 33.85-5.30L33.85-5.30L33.85-5.30Q32.29-7.20 31.41-9.74L31.41-9.74L31.41-9.74Q30.53-12.28 30.53-15.12L30.53-15.12L30.53-15.12Q30.53-18.37 31.76-21.32L31.76-21.32L31.76-21.32Q32.98-24.27 35.12-26.42L35.12-26.42L35.12-26.42Q37.25-28.58 40.28-29.85L40.28-29.85L40.28-29.85Q43.31-31.12 46.74-31.12L46.74-31.12L46.74-31.12Q50.22-31.12 53.29-29.94L53.29-29.94L53.29-29.94Q56.35-28.76 58.58-26.68L58.58-26.68L58.58-26.68Q60.80-24.59 62.09-21.54L62.09-21.54L62.09-21.54Q63.37-18.50 63.37-14.91ZM86.42-18.90L86.42-18.90L86.42 0L84.91 0L84.91-18.90L84.91-18.90Q84.91-19.51 84.71-19.94L84.71-19.94L84.71-19.94Q84.51-20.37 84.19-20.60L84.19-20.60L84.19-20.60Q83.88-20.83 83.36-20.96L83.36-20.96L83.36-20.96Q82.85-21.10 82.37-21.13L82.37-21.13L82.37-21.13Q81.88-21.16 81.17-21.16L81.17-21.16L81.17-21.16Q80.46-21.16 79.97-21.13L79.97-21.13L79.97-21.13Q79.49-21.10 78.98-20.96L78.98-20.96L78.98-20.96Q78.46-20.83 78.15-20.60L78.15-20.60L78.15-20.60Q77.83-20.37 77.63-19.94L77.63-19.94L77.63-19.94Q77.43-19.51 77.43-18.90L77.43-18.90L77.43 0L75.92 0L75.92-18.90L75.92-18.90Q75.92-22.68 81.17-22.68L81.17-22.68L81.17-22.68Q86.42-22.68 86.42-18.90ZM89.44-18.90L89.44-18.90L89.44 0L87.93 0L87.93-18.90L87.93-18.90Q87.93-21.56 86.05-22.88L86.05-22.88L86.05-22.88Q84.17-24.19 81.17-24.19L81.17-24.19L81.17-24.19Q78.17-24.19 76.29-22.88L76.29-22.88L76.29-22.88Q74.41-21.56 74.41-18.90L74.41-18.90L74.41 0L72.90 0L72.90-18.90L72.90-18.90Q72.90-21.10 74.03-22.68L74.03-22.68L74.03-22.68Q75.17-24.25 77.00-24.97L77.00-24.97L77.00-24.97Q78.84-25.70 81.17-25.70L81.17-25.70L81.17-25.70Q83.50-25.70 85.34-24.97L85.34-24.97L85.34-24.97Q87.18-24.25 88.31-22.68L88.31-22.68L88.31-22.68Q89.44-21.10 89.44-18.90ZM92.47-18.90L92.47-18.90L92.47 0L90.96 0L90.96-18.90L90.96-18.90Q90.96-20.87 90.19-22.47L90.19-22.47L90.19-22.47Q89.42-24.06 88.08-25.09L88.08-25.09L88.08-25.09Q86.73-26.12 84.97-26.67L84.97-26.67L84.97-26.67Q83.21-27.21 81.17-27.21L81.17-27.21L81.17-27.21Q79.13-27.21 77.37-26.67L77.37-26.67L77.37-26.67Q75.61-26.12 74.26-25.09L74.26-25.09L74.26-25.09Q72.92-24.06 72.15-22.47L72.15-22.47L72.15-22.47Q71.39-20.87 71.39-18.90L71.39-18.90L71.39 0L69.88 0L69.88-18.90L69.88-18.90Q69.88-21.19 70.77-23.05L70.77-23.05L70.77-23.05Q71.66-24.92 73.19-26.15L73.19-26.15L73.19-26.15Q74.73-27.38 76.78-28.05L76.78-28.05L76.78-28.05Q78.84-28.72 81.17-28.72L81.17-28.72L81.17-28.72Q83.50-28.72 85.56-28.05L85.56-28.05L85.56-28.05Q87.62-27.38 89.15-26.15L89.15-26.15L89.15-26.15Q90.68-24.92 91.57-23.05L91.57-23.05L91.57-23.05Q92.47-21.19 92.47-18.90ZM95.49-18.90L95.49 0L93.98 0L93.98-18.90L93.98-18.90Q93.98-21.19 92.96-23.28L92.96-23.28L92.96-23.28Q91.94-25.38 90.22-26.91L90.22-26.91L90.22-26.91Q88.50-28.43 86.13-29.33L86.13-29.33L86.13-29.33Q83.75-30.23 81.17-30.23L81.17-30.23L81.17-30.23Q77.62-30.23 74.74-28.90L74.74-28.90L74.74-28.90Q71.85-27.57 70.11-24.95L70.11-24.95L70.11-24.95Q68.36-22.34 68.36-18.90L68.36-18.90L68.36 0L66.85 0L66.85-18.90L66.85-18.90Q66.85-21.79 67.99-24.23L67.99-24.23L67.99-24.23Q69.12-26.67 71.06-28.30L71.06-28.30L71.06-28.30Q73.00-29.94 75.62-30.84L75.62-30.84L75.62-30.84Q78.23-31.75 81.17-31.75L81.17-31.75L81.17-31.75Q86.38-31.75 90.20-29.12L90.20-29.12L90.20-29.12Q94.02-31.75 99.23-31.75L99.23-31.75L99.23-31.75Q102.17-31.75 104.78-30.84L104.78-30.84L104.78-30.84Q107.40-29.94 109.34-28.30L109.34-28.30L109.34-28.30Q111.28-26.67 112.41-24.23L112.41-24.23L112.41-24.23Q113.55-21.79 113.55-18.90L113.55-18.90L113.55 0L112.04 0L112.04-18.90L112.04-18.90Q112.04-22.32 110.29-24.93L110.29-24.93L110.29-24.93Q108.55-27.55 105.66-28.89L105.66-28.89L105.66-28.89Q102.78-30.23 99.23-30.23L99.23-30.23L99.23-30.23Q94.78-30.23 91.46-28.13L91.46-28.13L91.46-28.13Q91.94-27.71 92.53-27.04L92.53-27.04L92.53-27.04Q95.41-28.72 99.23-28.72L99.23-28.72L99.23-28.72Q101.56-28.72 103.62-28.05L103.62-28.05L103.62-28.05Q105.67-27.38 107.21-26.15L107.21-26.15L107.21-26.15Q108.74-24.92 109.63-23.05L109.63-23.05L109.63-23.05Q110.52-21.19 110.52-18.90L110.52-18.90L110.52 0L109.01 0L109.01-18.90L109.01-18.90Q109.01-20.87 108.25-22.47L108.25-22.47L108.25-22.47Q107.48-24.06 106.14-25.09L106.14-25.09L106.14-25.09Q104.79-26.12 103.03-26.67L103.03-26.67L103.03-26.67Q101.26-27.21 99.23-27.21L99.23-27.21L99.23-27.21Q95.89-27.21 93.45-25.85L93.45-25.85L93.45-25.85Q93.83-25.26 94.21-24.54L94.21-24.54L94.21-24.54Q96.27-25.70 99.23-25.70L99.23-25.70L99.23-25.70Q101.56-25.70 103.40-24.97L103.40-24.97L103.40-24.97Q105.23-24.25 106.37-22.68L106.37-22.68L106.37-22.68Q107.50-21.10 107.50-18.90L107.50-18.90L107.50 0L105.99 0L105.99-18.90L105.99-18.90Q105.99-21.56 104.11-22.88L104.11-22.88L104.11-22.88Q102.23-24.19 99.23-24.19L99.23-24.19L99.23-24.19Q96.50-24.19 94.80-23.18L94.80-23.18L94.80-23.18Q95.07-22.38 95.22-21.67L95.22-21.67L95.22-21.67Q96.54-22.68 99.23-22.68L99.23-22.68L99.23-22.68Q104.48-22.68 104.48-18.90L104.48-18.90L104.48 0L102.96 0L102.96-18.90L102.96-18.90Q102.96-19.51 102.77-19.94L102.77-19.94L102.77-19.94Q102.57-20.37 102.25-20.60L102.25-20.60L102.25-20.60Q101.94-20.83 101.42-20.96L101.42-20.96L101.42-20.96Q100.91-21.10 100.42-21.13L100.42-21.13L100.42-21.13Q99.94-21.16 99.23-21.16L99.23-21.16L99.23-21.16Q98.51-21.16 98.03-21.13L98.03-21.13L98.03-21.13Q97.55-21.10 97.03-20.96L97.03-20.96L97.03-20.96Q96.52-20.83 96.20-20.60L96.20-20.60L96.20-20.60Q95.89-20.37 95.69-19.94L95.69-19.94L95.69-19.94Q95.49-19.51 95.49-18.90L95.49-18.90ZM126.40 0L126.40-30.23L127.91-30.23L127.91 0L126.40 0ZM123.37 0L123.37-30.23L124.88-30.23L124.88 0L123.37 0ZM120.35 0L120.35-30.23L121.86-30.23L121.86 0L120.35 0ZM117.33 0L117.33-30.23L118.84-30.23L118.84 0L117.33 0ZM131.86 0L131.86-30.23L133.37-30.23L133.37 0L131.86 0ZM140.93 0L140.93-30.23L142.44-30.23L142.44-7.56L153.59-7.56L153.59-6.05L142.44-6.05L142.44-4.54L153.59-4.54L153.59-3.02L142.44-3.02L142.44-1.51L153.59-1.51L153.59 0L140.93 0ZM137.90 0L137.90-30.23L139.41-30.23L139.41 0L137.90 0ZM134.88 0L134.88-30.23L136.39-30.23L136.39 0L134.88 0ZM174.86-10.20L184.37-30.23L185.88-30.23L176.37-10.20L176.37 0L174.86 0L174.86-10.20ZM171.83-10.20L181.34-30.23L182.85-30.23L173.34-10.20L173.34 0L171.83 0L171.83-10.20ZM168.81-10.20L178.32-30.23L179.83-30.23L170.32-10.20L170.32 0L168.81 0L168.81-10.20ZM166.52-11.74L175.30-30.23L176.81-30.23L167.30-10.20L167.30 0L165.79 0L165.79-10.20L155.64-30.23L157.16-30.23L166.52-11.74ZM166.94-14.32L158.69-30.23L160.20-30.23L167.70-15.98L166.94-14.32ZM168.43-17.64L161.71-30.23L163.24-30.23L169.21-19.30L168.43-17.64ZM169.96-20.93L164.78-30.23L166.29-30.23L170.72-22.59L169.96-20.93ZM213.49 0L213.49-12.68L215-15.54L215 0L213.49 0ZM216.51 0L216.51-18.48L218.02-21.33L218.02 0L216.51 0ZM219.54 0L219.54-24.19L221.05-27.06L221.05 0L219.54 0ZM220.65-34.77L209.39-13.40L208.53-14.97L218.95-34.77L220.65-34.77ZM217.23-34.77L207.65-16.69L206.77-18.29L215.50-34.77L217.23-34.77ZM197.53 0L197.53-15.37L199.04-12.51L199.04 0L197.53 0ZM194.51 0L194.51-21.12L196.02-18.27L196.02 0L194.51 0ZM191.48 0L191.48-26.88L193.00-24.00L193.00 0L191.48 0ZM190.16-34.77L203.70-9.07L202.00-9.07L189.97-31.89L189.97 0L188.46 0L188.46-34.77L190.16-34.77ZM193.60-34.77L207.13-9.07L205.40-9.07L191.88-34.77L193.60-34.77ZM222.56 0L222.56-31.89L210.53-9.07L208.81-9.07L195.31-34.77L197.01-34.77L209.69-10.67L222.35-34.77L224.07-34.77L224.07 0L222.56 0ZM249.52 0L249.52-14.91L249.52-14.91Q249.52-17.59 247.86-19.06L247.86-19.06L247.86-19.06Q246.20-20.53 243.47-20.53L243.47-20.53L243.47-20.53Q241.16-20.53 239.50-18.94L239.50-18.94L239.50-18.94Q237.84-17.34 237.84-15.12L237.84-15.12L237.84-15.12Q237.84-13.86 238.18-12.86L238.18-12.86L238.18-12.86Q238.52-11.86 239.09-11.20L239.09-11.20L239.09-11.20Q239.67-10.54 240.47-10.11L240.47-10.11L240.47-10.11Q241.27-9.68 242.14-9.49L242.14-9.49L242.14-9.49Q243.01-9.30 244.00-9.30L244.00-9.30L244.00-9.30Q246.39-9.30 248.36-10.48L248.36-10.48L248.36-8.97L248.36-8.97Q246.33-7.89 243.97-7.89L243.97-7.89L243.97-7.89Q242.46-7.89 241.13-8.30L241.13-8.30L241.13-8.30Q239.80-8.71 238.70-9.54L238.70-9.54L238.70-9.54Q237.61-10.37 236.97-11.81L236.97-11.81L236.97-11.81Q236.33-13.25 236.33-15.12L236.33-15.12L236.33-15.12Q236.33-18.01 238.37-20.03L238.37-20.03L238.37-20.03Q240.41-22.05 243.47-22.05L243.47-22.05L243.47-22.05Q246.85-22.05 248.94-20.15L248.94-20.15L248.94-20.15Q251.03-18.25 251.03-14.91L251.03-14.91L251.03 0L249.52 0ZM254.05-14.91L254.05-14.91L254.05 0L252.54 0L252.54-14.91L252.54-14.91Q252.54-18.88 250.00-21.22L250.00-21.22L250.00-21.22Q247.46-23.56 243.47-23.56L243.47-23.56L243.47-23.56Q239.78-23.56 237.30-21.10L237.30-21.10L237.30-21.10Q234.82-18.64 234.82-15.12L234.82-15.12L234.82-15.12Q234.82-12.98 235.57-11.27L235.57-11.27L235.57-11.27Q236.31-9.57 237.59-8.55L237.59-8.55L237.59-8.55Q238.87-7.52 240.46-6.98L240.46-6.98L240.46-6.98Q242.04-6.45 243.81-6.45L243.81-6.45L243.81-6.45Q246.20-6.45 248.36-7.56L248.36-7.56L248.36-5.96L248.36-5.96Q246.10-5.02 243.79-5.02L243.79-5.02L243.79-5.02Q241.71-5.02 239.84-5.66L239.84-5.66L239.84-5.66Q237.97-6.30 236.50-7.53L236.50-7.53L236.50-7.53Q235.03-8.76 234.17-10.72L234.17-10.72L234.17-10.72Q233.31-12.68 233.31-15.12L233.31-15.12L233.31-15.12Q233.31-19.25 236.24-22.16L236.24-22.16L236.24-22.16Q239.17-25.07 243.47-25.07L243.47-25.07L243.47-25.07Q246.49-25.07 248.89-23.84L248.89-23.84L248.89-23.84Q251.28-22.61 252.67-20.28L252.67-20.28L252.67-20.28Q254.05-17.95 254.05-14.91ZM257.08-14.91L257.08-14.91L257.08 0L255.56 0L255.56-14.91L255.56-14.91Q255.56-18.37 253.98-21.05L253.98-21.05L253.98-21.05Q252.39-23.73 249.64-25.15L249.64-25.15L249.64-25.15Q246.89-26.58 243.47-26.58L243.47-26.58L243.47-26.58Q240.22-26.58 237.53-25.04L237.53-25.04L237.53-25.04Q234.84-23.49 233.32-20.87L233.32-20.87L233.32-20.87Q231.80-18.25 231.80-15.12L231.80-15.12L231.80-15.12Q231.80-12.43 232.78-10.21L232.78-10.21L232.78-10.21Q233.77-8.00 235.44-6.57L235.44-6.57L235.44-6.57Q237.11-5.14 239.24-4.36L239.24-4.36L239.24-4.36Q241.37-3.57 243.70-3.57L243.70-3.57L243.70-3.57Q246.07-3.57 248.36-4.56L248.36-4.56L248.36-3.02L248.36-3.02Q245.97-2.12 243.66-2.12L243.66-2.12L243.66-2.12Q240.03-2.12 236.98-3.76L236.98-3.76L236.98-3.76Q233.94-5.40 232.11-8.40L232.11-8.40L232.11-8.40Q230.29-11.40 230.29-15.12L230.29-15.12L230.29-15.12Q230.29-17.76 231.30-20.16L231.30-20.16L231.30-20.16Q232.32-22.55 234.06-24.29L234.06-24.29L234.06-24.29Q235.81-26.04 238.26-27.06L238.26-27.06L238.26-27.06Q240.72-28.09 243.47-28.09L243.47-28.09L243.47-28.09Q247.31-28.09 250.41-26.46L250.41-26.46L250.41-26.46Q253.51-24.82 255.29-21.79L255.29-21.79L255.29-21.79Q257.08-18.77 257.08-14.91ZM260.10-14.91L260.10-14.91L260.10 0L258.59 0L258.59-14.91L258.59-14.91Q258.59-19.19 256.59-22.56L256.59-22.56L256.59-22.56Q254.60-25.93 251.16-27.77L251.16-27.77L251.16-27.77Q247.71-29.60 243.47-29.60L243.47-29.60L243.47-29.60Q239.40-29.60 236.02-27.65L236.02-27.65L236.02-27.65Q232.64-25.70 230.71-22.37L230.71-22.37L230.71-22.37Q228.77-19.04 228.77-15.12L228.77-15.12L228.77-15.12Q228.77-12.53 229.60-10.21L229.60-10.21L229.60-10.21Q230.43-7.89 231.87-6.16L231.87-6.16L231.87-6.16Q233.31-4.43 235.19-3.17L235.19-3.17L235.19-3.17Q237.07-1.91 239.24-1.26L239.24-1.26L239.24-1.26Q241.41-0.61 243.66-0.61L243.66-0.61L243.66-0.61Q246.14-0.61 248.36-1.55L248.36-1.55L248.36 0L248.36 0Q246.03 0.82 243.58 0.82L243.58 0.82L243.58 0.82Q241.04 0.82 238.63 0.10L238.63 0.10L238.63 0.10Q236.23-0.61 234.18-2.01L234.18-2.01L234.18-2.01Q232.13-3.40 230.58-5.30L230.58-5.30L230.58-5.30Q229.03-7.20 228.14-9.74L228.14-9.74L228.14-9.74Q227.26-12.28 227.26-15.12L227.26-15.12L227.26-15.12Q227.26-18.37 228.49-21.32L228.49-21.32L228.49-21.32Q229.72-24.27 231.85-26.42L231.85-26.42L231.85-26.42Q233.98-28.58 237.01-29.85L237.01-29.85L237.01-29.85Q240.05-31.12 243.47-31.12L243.47-31.12L243.47-31.12Q246.96-31.12 250.02-29.94L250.02-29.94L250.02-29.94Q253.09-28.76 255.31-26.68L255.31-26.68L255.31-26.68Q257.54-24.59 258.82-21.54L258.82-21.54L258.82-21.54Q260.10-18.50 260.10-14.91ZM275.26-12.93L275.26-14.45L284.37-14.45L284.37-14.45Q286.18-14.45 287.44-15.58L287.44-15.58L287.44-15.58Q288.70-16.71 288.70-18.77L288.70-18.77L288.70-18.77Q288.70-20.28 287.38-21.48L287.38-21.48L287.38-21.48Q286.07-22.68 284.37-22.68L284.37-22.68L271.40-22.68L271.40 0L269.88 0L269.88-24.19L284.37-24.19L284.37-24.19Q286.70-24.19 288.45-22.55L288.45-22.55L288.45-22.55Q290.21-20.91 290.21-18.77L290.21-18.77L290.21-18.77Q290.21-16.10 288.51-14.52L288.51-14.52L288.51-14.52Q286.81-12.93 284.37-12.93L284.37-12.93L275.26-12.93ZM275.26-9.91L275.26-11.42L284.37-11.42L284.37-11.42Q287.39-11.42 289.56-13.48L289.56-13.48L289.56-13.48Q291.72-15.54 291.72-18.77L291.72-18.77L291.72-18.77Q291.72-21.52 289.52-23.61L289.52-23.61L289.52-23.61Q287.31-25.70 284.37-25.70L284.37-25.70L268.37-25.70L268.37 0L266.86 0L266.86-27.21L284.37-27.21L284.37-27.21Q287.94-27.21 290.59-24.68L290.59-24.68L290.59-24.68Q293.23-22.15 293.23-18.77L293.23-18.77L293.23-18.77Q293.23-14.99 290.62-12.45L290.62-12.45L290.62-12.45Q288.00-9.91 284.37-9.91L284.37-9.91L275.26-9.91ZM275.26-6.89L275.26-8.40L284.37-8.40L284.37-8.40Q287.16-8.40 289.54-9.74L289.54-9.74L289.54-9.74Q291.91-11.09 293.33-13.48L293.33-13.48L293.33-13.48Q294.74-15.87 294.74-18.77L294.74-18.77L294.74-18.77Q294.74-21.40 293.34-23.69L293.34-23.69L293.34-23.69Q291.93-25.99 289.53-27.36L289.53-27.36L289.53-27.36Q287.12-28.72 284.37-28.72L284.37-28.72L265.35-28.72L265.35 0L263.84 0L263.84-30.23L284.37-30.23L284.37-30.23Q286.74-30.23 288.94-29.30L288.94-29.30L288.94-29.30Q291.13-28.37 292.73-26.82L292.73-26.82L292.73-26.82Q294.32-25.28 295.29-23.16L295.29-23.16L295.29-23.16Q296.25-21.04 296.25-18.77L296.25-18.77L296.25-18.77Q296.25-15.10 294.58-12.36L294.58-12.36L294.58-12.36Q292.90-9.62 290.06-8.19L290.06-8.19L293.23 0L291.61 0L288.61-7.58L288.61-7.58Q288.05-7.39 287.29-7.20L287.29-7.20L290.12 0L288.51 0L285.74-6.95L285.74-6.95Q285.08-6.89 284.37-6.89L284.37-6.89L287.04 0L285.44 0L282.80-6.89L281.43-6.89L283.97 0L282.38 0L279.81-6.89L275.26-6.89ZM274.42-19.65L274.42 0L272.91 0L272.91-21.16L284.37-21.16L284.37-21.16Q285.55-21.16 286.37-20.46L286.37-20.46L286.37-20.46Q287.18-19.76 287.18-18.77L287.18-18.77L287.18-18.77Q287.18-15.96 284.37-15.96L284.37-15.96L275.26-15.96L275.26-17.47L284.37-17.47L284.37-17.47Q285.67-17.47 285.67-18.77L285.67-18.77L285.67-18.77Q285.67-19.13 285.28-19.39L285.28-19.39L285.28-19.39Q284.90-19.65 284.37-19.65L284.37-19.65L274.42-19.65ZM304.95 0L304.95-21.86L306.46-21.86L306.46 0L304.95 0ZM321.58-28.72L298.90-28.72L298.90-30.23L321.58-30.23L321.58-28.72ZM321.58-25.70L298.90-25.70L298.90-27.21L321.58-27.21L321.58-25.70ZM321.58-22.68L298.90-22.68L298.90-24.19L321.58-24.19L321.58-22.68ZM314.02 0L314.02-21.86L315.53-21.86L315.53 0L314.02 0ZM310.99 0L310.99-21.86L312.51-21.86L312.51 0L310.99 0ZM307.97 0L307.97-21.86L309.48-21.86L309.48 0L307.97 0Z"></path></g> <!----></g> <!----></g></g></svg>