<?xml version="1.0" encoding="utf-8"?>
<!-- Generator: Adobe Illustrator 17.0.0, SVG Export Plug-In . SVG Version: 6.00 Build 0)  -->
<!DOCTYPE svg PUBLIC "-//W3C//DTD SVG 1.1//EN" "http://www.w3.org/Graphics/SVG/1.1/DTD/svg11.dtd">
<svg version="1.1" id="图层_1" xmlns="http://www.w3.org/2000/svg" xmlns:xlink="http://www.w3.org/1999/xlink" x="0px" y="0px"
	 width="60px" height="60px" viewBox="0 0 60 60" enable-background="new 0 0 60 60" xml:space="preserve">
<g>
	<defs>
		<path id="SVGID_1_" d="M58.886,54.461l-8.419-8.494c3.994-4.874,6.392-11.102,6.392-17.892c0-15.606-12.654-28.256-28.264-28.256
			S0.331,12.469,0.331,28.075s12.654,28.256,28.264,28.256c6.828,0,13.09-2.419,17.976-6.448l8.411,8.488
			c1.076,1.079,2.825,1.079,3.904,0C59.961,57.292,59.961,55.54,58.886,54.461 M28.595,50.68c-12.484,0-22.602-10.121-22.602-22.605
			S16.111,5.47,28.595,5.47s22.602,10.121,22.602,22.605S41.079,50.68,28.595,50.68"/>
	</defs>
	<clipPath id="SVGID_2_">
		<use xlink:href="#SVGID_1_"  overflow="visible"/>
	</clipPath>
	<rect x="-26.651" y="-27.164" opacity="0.99" clip-path="url(#SVGID_2_)" fill="#9C9EA0" width="113.326" height="113.327"/>
</g>
</svg>
